<?xml version="1.0" encoding="UTF-8" standalone="no"?>
<!-- Created with Inkscape (http://www.inkscape.org/) -->

<svg
   width="210mm"
   height="297mm"
   viewBox="0 0 210 297"
   version="1.1"
   id="svg1"
   xml:space="preserve"
   inkscape:version="1.4.2 (f4327f4, 2025-05-13)"
   sodipodi:docname="For You.svg"
   xmlns:inkscape="http://www.inkscape.org/namespaces/inkscape"
   xmlns:sodipodi="http://sodipodi.sourceforge.net/DTD/sodipodi-0.dtd"
   xmlns="http://www.w3.org/2000/svg"
   xmlns:svg="http://www.w3.org/2000/svg"><sodipodi:namedview
     id="namedview1"
     pagecolor="#ffffff"
     bordercolor="#cccccc"
     borderopacity="1"
     inkscape:showpageshadow="0"
     inkscape:pageopacity="1"
     inkscape:pagecheckerboard="0"
     inkscape:deskcolor="#d1d1d1"
     inkscape:document-units="mm"
     inkscape:zoom="0.5"
     inkscape:cx="50"
     inkscape:cy="699"
     inkscape:window-width="1366"
     inkscape:window-height="745"
     inkscape:window-x="-8"
     inkscape:window-y="-8"
     inkscape:window-maximized="1"
     inkscape:current-layer="layer1"
     showguides="true" /><defs
     id="defs1"><inkscape:path-effect
       effect="fillet_chamfer"
       id="path-effect4"
       is_visible="true"
       lpeversion="1"
       nodesatellites_param="F,0,0,1,0,0,0,1 @ F,0,0,1,0,0,0,1 @ F,0,0,1,0,0,0,1 @ F,0,0,1,0,0,0,1 @ F,0,0,1,0,0,0,1 @ F,0,0,1,0,0,0,1 @ F,0,0,1,0,0,0,1 @ F,0,0,1,0,0,0,1 @ F,0,0,1,0,0,0,1 @ F,0,0,1,0,0,0,1 @ F,0,0,1,0,0,0,1 @ F,0,0,1,0,0,0,1 @ F,0,0,1,0,0,0,1 @ F,0,0,1,0,0,0,1 @ F,0,0,1,0,0,0,1"
       radius="0"
       unit="px"
       method="auto"
       mode="F"
       chamfer_steps="1"
       flexible="false"
       use_knot_distance="true"
       apply_no_radius="true"
       apply_with_radius="true"
       only_selected="false"
       hide_knots="false" /></defs><g
     inkscape:label="Camada 1"
     inkscape:groupmode="layer"
     id="layer1"><text
       xml:space="preserve"
       style="font-size:5.64444px;font-family:'Baskerville Old Face';-inkscape-font-specification:'Baskerville Old Face';text-align:start;writing-mode:lr-tb;direction:ltr;text-anchor:start;fill:#ffffff;fill-opacity:1;stroke:none;stroke-width:0.562999;stroke-linejoin:bevel;stroke-dasharray:none;stroke-dashoffset:3.77953;stroke-opacity:1"
       x="-150.69675"
       y="56.571224"
       id="text84"><tspan
         sodipodi:role="line"
         id="tspan84"
         style="stroke-width:0.563"
         x="-150.69675"
         y="56.571224" /></text><g
       id="g121"
       transform="translate(14.81667)"><g
         id="g120"><g
           id="g119"><g
             id="g118"><g
               id="g41"
               transform="translate(0,-34.799561)"><g
                 id="g40"><g
                   id="g39"><g
                     id="g38"><rect
                       style="fill:#000000;stroke:none;stroke-width:0.618626;stroke-linejoin:bevel;stroke-dashoffset:3.77953"
                       id="rect1"
                       width="95.512573"
                       height="35.491611"
                       x="-157.18906"
                       y="252.81036"
                       rx="0"
                       ry="0" /><g
                       id="g23"><g
                         id="g22"><g
                           id="g21"><g
                             id="g20"><g
                               id="g19"><g
                                 id="g18"><g
                                   id="g17"><g
                                   id="g16"><g
                                   id="g10"
                                   transform="matrix(0.89218083,0,0,0.89218083,-222.65142,67.038695)"><g
                                   id="g9"><g
                                   id="g8"><g
                                   id="g7"><g
                                   id="g6"><rect
                                   style="fill:#ffffff;stroke:none;stroke-width:0.536195;stroke-linejoin:bevel;stroke-dashoffset:3.77953"
                                   id="rect2"
                                   width="4.9541688"
                                   height="3.1548223"
                                   x="81.338173"
                                   y="225.02197"
                                   ry="0.60944611"
                                   rx="0.69002688" /><path
                                   sodipodi:type="star"
                                   style="fill:#ffffff;stroke:none;stroke-width:0.663001;stroke-linejoin:bevel;stroke-dashoffset:3.77953"
                                   id="path2"
                                   inkscape:flatsided="true"
                                   sodipodi:sides="3"
                                   sodipodi:cx="-150.99165"
                                   sodipodi:cy="221.67281"
                                   sodipodi:r1="2.3117702"
                                   sodipodi:r2="1.1558851"
                                   sodipodi:arg1="0.52359878"
                                   sodipodi:arg2="1.5707963"
                                   inkscape:rounded="0"
                                   inkscape:randomized="0"
                                   d="m -148.9896,222.82869 -4.00411,0 2.00206,-3.46765 z"
                                   inkscape:transform-center-y="-0.50938378"
                                   transform="matrix(1.7134598,0,0,0.88136431,342.53338,29.207943)"
                                   inkscape:transform-center-x="-2.4652489e-05" /><rect
                                   style="fill:#000000;stroke:none;stroke-width:0.507843;stroke-linejoin:bevel;stroke-dashoffset:3.77953"
                                   id="rect3"
                                   width="0.60401309"
                                   height="2.0327363"
                                   x="83.54789"
                                   y="226.23541"
                                   rx="0.11967915"
                                   ry="0.11967915" /></g></g></g></g></g><text
                                   xml:space="preserve"
                                   style="font-style:normal;font-variant:normal;font-weight:normal;font-stretch:normal;font-size:2.68077px;font-family:arial;-inkscape-font-specification:arial;text-align:start;writing-mode:lr-tb;direction:ltr;text-anchor:start;fill:#ffffff;stroke-width:0.314885;stroke-linejoin:bevel;stroke-dashoffset:3.77953"
                                   x="-144.42"
                                   y="286.46771"
                                   id="text12"
                                   transform="scale(1.0469019,0.95519934)"><tspan
                                   sodipodi:role="line"
                                   id="tspan12"
                                   style="font-style:normal;font-variant:normal;font-weight:normal;font-stretch:normal;font-family:arial;-inkscape-font-specification:arial;fill:#ffffff;stroke-width:0.314884"
                                   x="-144.42"
                                   y="286.46771">Início</tspan></text></g></g></g></g></g></g></g></g><g
                       id="g82"
                       transform="translate(-12.090605,34.624993)"><g
                         id="g81"><g
                           id="g80"><g
                             id="g79"><g
                               id="g70"
                               transform="translate(12.13776)"><g
                                 id="g69"><g
                                   id="g68"><path
                                   id="rect61"
                                   style="fill:#20d4ec;fill-opacity:1;stroke:none;stroke-width:0.697814;stroke-linejoin:bevel;stroke-dasharray:none;stroke-dashoffset:3.77953;stroke-opacity:1"
                                   d="m -112.8154,229.57565 c -1.26424,0 -2.28203,1.01778 -2.28203,2.28203 v 2.86081 c 0,1.26425 1.01779,2.28203 2.28203,2.28203 h 4.92839 c 0.16384,0 0.3236,-0.0171 0.47749,-0.0496 h -4.50722 c -1.26425,0 -2.28203,-1.01778 -2.28203,-2.28203 v -2.86081 c 0,-1.1004 0.77102,-2.01407 1.80454,-2.23242 z" /><path
                                   id="rect62"
                                   style="fill:#f12f6c;fill-opacity:1;stroke:none;stroke-width:0.694316;stroke-linejoin:bevel;stroke-dasharray:none;stroke-dashoffset:3.77953;stroke-opacity:1"
                                   d="m -107.02396,229.55911 c 1.25161,0 2.25921,1.01779 2.25921,2.28204 v 2.8608 c 0,1.26425 -1.0076,2.28203 -2.25921,2.28203 h 1.01501 c 1.2516,0 2.25921,-1.01778 2.25921,-2.28203 v -2.8608 c 0,-1.26425 -1.00761,-2.28204 -2.25921,-2.28204 z" /><rect
                                   style="fill:#ffffff;stroke:none;stroke-width:0.701302;stroke-linejoin:bevel;stroke-dasharray:none;stroke-dashoffset:3.77953;stroke-opacity:1"
                                   id="rect63"
                                   width="9.4920425"
                                   height="7.4992838"
                                   x="-114.22282"
                                   y="229.51776"
                                   ry="2.2820363"
                                   rx="2.2820363" /></g></g></g><g
                               id="g78"
                               transform="translate(12.069608,-0.01854267)"><g
                                 id="g77"><g
                                   id="g76"><g
                                   id="g75"><g
                                   id="g74"><g
                                   id="g73"><g
                                   id="g72"><rect
                                   style="fill:#000000;fill-opacity:1;stroke:none;stroke-width:0.558652;stroke-linejoin:bevel;stroke-dasharray:none;stroke-dashoffset:3.77953;stroke-opacity:1"
                                   id="rect70"
                                   width="0.51263016"
                                   height="3.4395833"
                                   x="-109.67815"
                                   y="231.53322"
                                   ry="0.11575521"
                                   rx="0.11575521" /><rect
                                   style="fill:#000000;fill-opacity:1;stroke:none;stroke-width:0.558652;stroke-linejoin:bevel;stroke-dasharray:none;stroke-dashoffset:3.77953;stroke-opacity:1"
                                   id="rect71"
                                   width="0.51263016"
                                   height="3.4395833"
                                   x="-233.47626"
                                   y="-111.14162"
                                   transform="rotate(-90)"
                                   ry="0.10748698"
                                   rx="0.10748698" /></g></g></g></g></g></g></g></g></g></g></g><g
                       id="g37"><g
                         id="g36"><g
                           id="g35"><g
                             id="g34"><g
                               id="g33"><g
                                 id="g32"><circle
                                   style="fill:none;stroke:#ffffff;stroke-width:0.576004;stroke-linejoin:bevel;stroke-dasharray:none;stroke-dashoffset:3.77953;stroke-opacity:1"
                                   id="path1"
                                   cx="-129.86987"
                                   cy="266.81158"
                                   r="0.99825048" /><circle
                                   style="fill:none;stroke:#ffffff;stroke-width:0.425156;stroke-linejoin:bevel;stroke-dasharray:none;stroke-dashoffset:3.77953;stroke-opacity:1"
                                   id="circle1"
                                   cx="-127.23931"
                                   cy="267.49689"
                                   r="0.73682117" /><path
                                   style="baseline-shift:baseline;display:inline;overflow:visible;vector-effect:none;fill:#ffffff;stroke-width:1.01462;stroke-linejoin:bevel;stroke-dashoffset:3.77953;enable-background:accumulate;stop-color:#000000"
                                   d="m -127.8795,270.33383 c 0.0625,-0.69083 -0.40948,-1.20796 -0.93366,-1.52373 -5.3e-4,-3.4e-4 -9.9e-4,3.8e-4 -0.002,6e-5 -7.9e-4,-4.6e-4 -0.001,-9.7e-4 -0.002,-0.002 -0.58163,-0.36238 -1.38126,-0.37089 -1.98084,-0.0468 l -0.006,0.002 c -0.1508,0.0728 -0.32687,0.17336 -0.63175,0.51282 -0.22359,0.24896 -0.4203,0.61445 -0.35074,0.98689 l 0.5564,-0.0164 c -0.0217,-0.11646 0.0879,-0.39644 0.23566,-0.59381 0.1463,-0.19533 0.31271,-0.2946 0.45794,-0.37862 5.4e-4,-2.8e-4 10e-4,2.5e-4 0.002,-6e-5 0.39184,-0.21079 1.06419,-0.19753 1.42932,0.0312 l 0.004,0.004 c 0.38585,0.23144 0.68664,0.65252 0.65251,1.03031 z"
                                   id="path3"
                                   sodipodi:nodetypes="csccccsccssccccc" /><path
                                   style="baseline-shift:baseline;display:inline;overflow:visible;vector-effect:none;fill:#ffffff;stroke-width:0.940723;stroke-linejoin:bevel;stroke-dashoffset:3.77953;enable-background:accumulate;stop-color:#000000"
                                   d="m -125.66187,270.4208 c 0.0579,-0.64052 -0.21128,-1.03785 -0.69728,-1.33062 -4.9e-4,-3.2e-4 -9.2e-4,3.5e-4 -0.002,5e-5 -7.4e-4,-4.3e-4 -9.3e-4,-9e-4 -0.002,-0.002 -0.53927,-0.33599 -1.28066,-0.34388 -1.83657,-0.0434 l -0.006,0.002 c -0.13982,0.0675 -0.30307,0.16073 -0.58574,0.47547 -0.20731,0.23083 -0.38969,0.5697 -0.3252,0.91501 l 0.51588,-0.0152 c -0.0201,-0.10798 0.0815,-0.36757 0.2185,-0.55056 0.13564,-0.18111 0.28993,-0.27315 0.42458,-0.35105 5.1e-4,-2.6e-4 9.3e-4,2.3e-4 0.002,-5e-5 0.3633,-0.19544 0.98668,-0.18315 1.32522,0.0289 l 0.004,0.004 c 0.35775,0.21459 0.46825,0.52287 0.4366,0.87314 z"
                                   id="path4"
                                   sodipodi:nodetypes="csccccsccssccccc" /><g
                                   id="g15"
                                   transform="translate(-0.2451805,35.143501)"><g
                                   id="g14"><g
                                   id="g13"><path
                                   id="rect4"
                                   style="stroke-width:0.562999;stroke-linejoin:bevel;stroke-dashoffset:3.77953"
                                   d="m -128.74729,234.41516 0.12247,-0.0828 c 0.14455,0.12999 0.32389,0.32032 0.40363,0.6343 l -0.1132,0.0591 z"
                                   sodipodi:nodetypes="ccccc" /><rect
                                   style="fill:#000000;stroke:none;stroke-width:0.562999;stroke-linejoin:bevel;stroke-dasharray:none;stroke-dashoffset:3.77953;stroke-opacity:1"
                                   id="rect5"
                                   width="0.84335935"
                                   height="0.68212891"
                                   x="101.25652"
                                   y="247.50546"
                                   transform="rotate(51.033253)" /><rect
                                   style="fill:#000000;stroke:none;stroke-width:0.562999;stroke-linejoin:bevel;stroke-dasharray:none;stroke-dashoffset:3.77953;stroke-opacity:1"
                                   id="rect6"
                                   width="0.61184895"
                                   height="0.50436199"
                                   x="-128.88515"
                                   y="234.90866" /></g></g></g><path
                                   id="rect21"
                                   style="stroke-width:0.609643;stroke-linejoin:bevel;stroke-dashoffset:3.77953"
                                   d="m -128.43222,269.08194 0.14853,-0.10245 0.42928,0.55667 -0.14853,0.10245 c -0.12978,-0.22824 -0.2771,-0.39699 -0.42928,-0.55666 z"
                                   sodipodi:nodetypes="ccccc" /><rect
                                   style="fill:#000000;stroke:none;stroke-width:0.66449;stroke-linejoin:bevel;stroke-dasharray:none;stroke-dashoffset:3.77953;stroke-opacity:1"
                                   id="rect54"
                                   width="0.15912937"
                                   height="0.64029759"
                                   x="-260.72726"
                                   y="89.015007"
                                   transform="matrix(0.67116074,-0.74131186,0.52510851,0.85103528,0,0)" /></g></g></g></g><text
                           xml:space="preserve"
                           style="font-style:normal;font-variant:normal;font-weight:normal;font-stretch:normal;font-size:2.62835px;font-family:arial;-inkscape-font-specification:arial;text-align:start;writing-mode:lr-tb;direction:ltr;text-anchor:start;fill:#ffffff;stroke-width:0.308729;stroke-linejoin:bevel;stroke-dashoffset:3.77953"
                           x="-128.69193"
                           y="283.47397"
                           id="text23"
                           transform="scale(1.0361469,0.96511412)"><tspan
                             sodipodi:role="line"
                             id="tspan23"
                             style="stroke-width:0.308729"
                             x="-128.69193"
                             y="283.47397">Amigos</tspan></text></g></g><g
                       id="g31"><g
                         id="g30"><g
                           id="g29"><g
                             id="g106"
                             transform="translate(0,34.894151)"><g
                               id="g105"><g
                                 id="g104"><g
                                   id="g103"><g
                                   id="g98"
                                   transform="translate(-1.5392258,2.1952112)"><g
                                   id="g97"><g
                                   id="g95"><g
                                   id="g94"><g
                                   id="g93"><g
                                   id="g92"><rect
                                   style="fill:none;fill-opacity:1;stroke:#ffffff;stroke-width:0.54;stroke-linejoin:bevel;stroke-dasharray:none;stroke-dashoffset:3.77953;stroke-opacity:1"
                                   id="rect82"
                                   width="4.6549873"
                                   height="3.961376"
                                   x="-91.18161"
                                   y="228.38083"
                                   ry="0" /><g
                                   id="g91"
                                   transform="translate(1.5785606,-3.7716849)"><g
                                   id="g90"><g
                                   id="g89"><g
                                   id="g88"><g
                                   id="g87"
                                   transform="translate(0,1.5048177)"><g
                                   id="g86"><g
                                   id="g85"><rect
                                   style="fill:#ffffff;fill-opacity:1;stroke:none;stroke-width:0.615969;stroke-linejoin:bevel;stroke-dasharray:none;stroke-dashoffset:3.77953;stroke-opacity:1"
                                   id="rect83"
                                   width="0.46214128"
                                   height="1.2402363"
                                   x="-217.81055"
                                   y="126.3571"
                                   transform="rotate(-38.589713)" /><rect
                                   style="fill:#ffffff;fill-opacity:1;stroke:none;stroke-width:0.61597;stroke-linejoin:bevel;stroke-dasharray:none;stroke-dashoffset:3.77953;stroke-opacity:1"
                                   id="rect84"
                                   width="0.46544269"
                                   height="1.2314453"
                                   x="-77.848618"
                                   y="238.46666"
                                   transform="matrix(-0.77608832,-0.63062424,-0.62819201,0.77805835,0,0)" /><rect
                                   style="fill:#ffffff;fill-opacity:1;stroke:none;stroke-width:0.667124;stroke-linejoin:bevel;stroke-dasharray:none;stroke-dashoffset:3.77953;stroke-opacity:1"
                                   id="rect85"
                                   width="0.50244612"
                                   height="0.27108046"
                                   x="-89.994766"
                                   y="235.5742"
                                   transform="rotate(0.16198348)" /></g></g></g><path
                                   id="path87"
                                   style="stroke-width:0.503217;stroke-linejoin:bevel;stroke-dashoffset:3.77953"
                                   inkscape:transform-center-x="-0.0086949899"
                                   inkscape:transform-center-y="0.16949028"
                                   d="m -90.411255,236.66922 -0.688591,-0.85005 1.369133,0.006 z"
                                   sodipodi:nodetypes="cccc" /></g></g></g></g></g></g></g></g><rect
                                   style="fill:#ffffff;fill-opacity:1;stroke:none;stroke-width:0.573902;stroke-linejoin:bevel;stroke-dasharray:none;stroke-dashoffset:3.77953;stroke-opacity:1"
                                   id="rect95"
                                   width="2.0449317"
                                   height="0.50295371"
                                   x="-89.865318"
                                   y="230.19937"
                                   ry="0.06614583"
                                   rx="0.06614583" /></g></g><g
                                   id="g102"
                                   transform="translate(-0.07015825)"><g
                                   id="g101"><g
                                   id="g100"><g
                                   id="g99"><ellipse
                                   style="fill:#fb2a58;fill-opacity:1;stroke:none;stroke-width:0.711017;stroke-linejoin:bevel;stroke-dasharray:none;stroke-dashoffset:3.77953;stroke-opacity:1"
                                   id="path98"
                                   cx="-86.912598"
                                   cy="230.83575"
                                   rx="2.2737629"
                                   ry="2.1480627" /><text
                                   xml:space="preserve"
                                   style="font-style:normal;font-variant:normal;font-weight:normal;font-stretch:normal;font-size:2.83528px;font-family:Arial;-inkscape-font-specification:Arial;text-align:start;writing-mode:lr-tb;direction:ltr;text-anchor:start;fill:#ffffff;fill-opacity:1;stroke:none;stroke-width:0.271249;stroke-linejoin:bevel;stroke-dasharray:none;stroke-dashoffset:3.77953;stroke-opacity:1"
                                   x="-86.587822"
                                   y="234.82314"
                                   id="text98"
                                   transform="scale(1.0128215,0.9873408)"><tspan
                                   sodipodi:role="line"
                                   id="tspan98"
                                   style="font-style:normal;font-variant:normal;font-weight:normal;font-stretch:normal;font-family:Arial;-inkscape-font-specification:Arial;fill:#ffffff;stroke-width:0.27125"
                                   x="-86.587822"
                                   y="234.82314">2</tspan></text></g></g></g></g></g></g></g></g><text
                             xml:space="preserve"
                             style="font-style:normal;font-variant:normal;font-weight:normal;font-stretch:normal;font-size:2.56715px;font-family:arial;-inkscape-font-specification:arial;text-align:start;writing-mode:lr-tb;direction:ltr;text-anchor:start;fill:#ffffff;stroke-width:0.301539;stroke-linejoin:bevel;stroke-dashoffset:3.77953"
                             x="-94.863029"
                             y="279.71249"
                             id="text24"
                             transform="scale(1.0234288,0.97710755)"><tspan
                               sodipodi:role="line"
                               id="tspan24"
                               style="stroke-width:0.301539"
                               x="-94.863029"
                               y="279.71249">Mensagens</tspan></text></g></g></g><g
                       id="g28"><g
                         id="g27"><g
                           id="g26"><g
                             id="g12"
                             transform="translate(0,0.13429788)"><g
                               id="g5"><circle
                                 style="fill:none;stroke:#ffffff;stroke-width:0.625602;stroke-linejoin:bevel;stroke-dasharray:none;stroke-dashoffset:3.77953;stroke-opacity:1"
                                 id="circle2"
                                 cx="-71.355133"
                                 cy="266.05338"
                                 r="1.0842062" /><path
                                 style="baseline-shift:baseline;display:inline;overflow:visible;vector-effect:none;fill:#ffffff;stroke-width:1.10199;stroke-linejoin:bevel;stroke-dashoffset:3.77953;enable-background:accumulate;stop-color:#000000"
                                 d="m -69.193377,269.87891 c 0.06788,-0.75031 -0.444738,-1.31197 -1.014054,-1.65493 -5.75e-4,-3.7e-4 -0.0011,4.1e-4 -0.0022,6e-5 -8.58e-4,-4.9e-4 -0.0011,-10e-4 -0.0022,-0.002 -0.631712,-0.39358 -1.500195,-0.40282 -2.151403,-0.0508 l -0.0066,0.002 c -0.163785,0.079 -0.355015,0.18828 -0.686148,0.55697 -0.242842,0.2704 -0.45649,0.66736 -0.380941,1.07187 l 0.60431,-0.0179 c -0.02357,-0.12648 0.09547,-0.43057 0.255952,-0.64494 0.158897,-0.21214 0.339636,-0.31996 0.497371,-0.41122 5.86e-4,-3e-4 0.0011,2.8e-4 0.0022,-6e-5 0.42558,-0.22894 1.155823,-0.21453 1.552394,0.0339 l 0.0043,0.004 c 0.419074,0.25137 0.745764,0.70871 0.708695,1.11903 z"
                                 id="path5"
                                 sodipodi:nodetypes="csccccsccssccccc" /></g></g><text
                             xml:space="preserve"
                             style="font-style:normal;font-variant:normal;font-weight:normal;font-stretch:normal;font-size:2.56008px;font-family:arial;-inkscape-font-specification:arial;text-align:start;writing-mode:lr-tb;direction:ltr;text-anchor:start;fill:#ffffff;stroke-width:0.300707;stroke-linejoin:bevel;stroke-dashoffset:3.77953"
                             x="-70.497398"
                             y="288.70148"
                             id="text26"
                             transform="scale(1.0564997,0.94652181)"><tspan
                               sodipodi:role="line"
                               id="tspan26"
                               style="stroke-width:0.300706"
                               x="-70.497398"
                               y="288.70148">Perfil</tspan></text></g></g></g></g></g></g></g><g
               id="g45"
               transform="translate(-12.890069)"><g
                 id="g44"><g
                   id="g43"><g
                     id="g42"><circle
                       style="fill:#252423;fill-opacity:1;stroke-width:1.10167;stroke-linejoin:bevel;stroke-dashoffset:3.77953"
                       id="path41"
                       cx="-56.337086"
                       cy="219.87596"
                       r="5.1683249" /><circle
                       style="fill:#e7bb17;fill-opacity:1;stroke-width:0.814063;stroke-linejoin:bevel;stroke-dashoffset:3.77953"
                       id="path42"
                       cx="-56.330643"
                       cy="219.92155"
                       r="1.2921525" /></g></g></g></g><path
               id="path6"
               style="fill:#ffffff;stroke-width:0.78759;stroke-linejoin:bevel;stroke-dashoffset:3.77953"
               d="m -69.5849,167.26576 v 5.2e-4 c -2.082287,0 -3.770312,1.44371 -3.770312,3.22461 6e-6,1.7809 1.68803,3.2246 3.770312,3.2246 h 0.0016 l 5.17e-4,0.88677 c 2.080206,-0.001 3.766447,-1.83941 3.768246,-4.10776 v -0.004 c 0,-1.7809 -1.688027,-3.22461 -3.770313,-3.22461 z m -1.774052,2.85306 a 0.55148882,0.55148882 0 0 1 0.551388,0.55138 0.55148882,0.55148882 0 0 1 -0.551388,0.55191 0.55148882,0.55148882 0 0 1 -0.551387,-0.55191 0.55148882,0.55148882 0 0 1 0.551387,-0.55138 z m 1.756482,0 a 0.55148882,0.55148882 0 0 1 0.551388,0.55138 0.55148882,0.55148882 0 0 1 -0.551388,0.55191 0.55148882,0.55148882 0 0 1 -0.551387,-0.55191 0.55148882,0.55148882 0 0 1 0.551387,-0.55138 z m 1.796273,0 a 0.55148882,0.55148882 0 0 1 0.551904,0.55138 0.55148882,0.55148882 0 0 1 -0.551904,0.55191 0.55148882,0.55148882 0 0 1 -0.551388,-0.55191 0.55148882,0.55148882 0 0 1 0.551388,-0.55138 z" /><path
               id="rect8"
               style="fill:#ffffff;stroke-width:0.664031;stroke-linejoin:bevel;stroke-dashoffset:3.77953"
               d="m -71.779537,183.31336 c -0.272074,0 -0.490926,0.21885 -0.490926,0.49093 v 5.2498 c 0,0.24719 0.180437,0.45062 0.417545,0.48576 h 5.17e-4 l 2.226221,-1.47536 2.256193,1.48105 h 5.17e-4 c 0.270044,-0.002 0.486792,-0.22083 0.486792,-0.49145 v -5.2498 c 0,-0.27208 -0.218853,-0.49093 -0.490926,-0.49093 z" /><path
               id="rect9"
               style="fill:#ffffff;stroke-width:0.401594;stroke-linejoin:bevel;stroke-dashoffset:3.77953"
               d="m -67.890611,151.96059 a 2.2857136,2.303259 0.219636 0 0 -1.617658,0.65984 h -3.16e-4 l -6.06e-4,-9.9e-4 -3.12e-4,3e-4 a 2.303259,2.2857136 0.219636 0 0 -2.179523,-0.56531 2.303259,2.2857136 0.219636 0 0 -1.638948,1.60576 2.303259,2.2857136 0.219636 0 0 0.574071,2.20394 l -6.04e-4,6.3e-4 3.245337,3.24533 3.207775,-3.20779 3.12e-4,3.1e-4 a 2.2857136,2.303259 0.219636 0 0 0.03694,-0.0376 2.2857136,2.303259 0.219636 0 1 3.14e-4,-3.2e-4 2.2857136,2.303259 0.219636 0 0 0.568745,-2.18295 2.2857136,2.303259 0.219636 0 0 -1.605765,-1.63926 2.2857136,2.303259 0.219636 0 0 -0.589721,-0.082 z" /><path
               id="path13"
               style="fill:#ffffff;fill-opacity:1;stroke-width:0.825623;stroke-linejoin:bevel;stroke-dashoffset:3.77953"
               d="m -69.815894,198.38634 -0.0026,1.92236 a 3.2742188,3.2742188 0 0 0 -3.201355,3.27319 3.2742188,3.2742188 0 0 0 0.144694,0.96428 h 0.372587 a 2.4916015,2.4916015 0 0 1 1.984891,-0.98495 2.4916015,2.4916015 0 0 1 0.694532,0.0987 l -0.0031,2.03709 4.006474,-3.64319 z" /><g
               id="g55"
               transform="translate(-8.3294582,0.09921875)"><g
                 id="g54"><g
                   id="g53"><g
                     id="g52"><circle
                       style="fill:#cccccc;fill-opacity:1;stroke-width:0.696766;stroke-linejoin:bevel;stroke-dashoffset:3.77953"
                       id="circle28"
                       cx="-61.264919"
                       cy="139.13971"
                       r="5.7158856" /><path
                       id="circle46"
                       style="fill:#ffffff;fill-opacity:1;stroke-width:0.696766;stroke-linejoin:bevel;stroke-dashoffset:3.77953"
                       d="m -61.122792,141.40113 a 4.2185345,4.2185345 0 0 0 -2.109432,0.56534 4.2185345,4.2185345 0 0 0 -1.590601,1.63814 5.7158856,5.7158856 0 0 0 3.558956,1.25109 5.7158856,5.7158856 0 0 0 3.747058,-1.41594 4.2185345,4.2185345 0 0 0 -1.496549,-1.47329 4.2185345,4.2185345 0 0 0 -2.109432,-0.56534 z" /><circle
                       style="fill:#f82d54;fill-opacity:1;stroke-width:0.694255;stroke-linejoin:bevel;stroke-dashoffset:3.77953"
                       id="circle29"
                       cx="-61.130924"
                       cy="144.82367"
                       r="2.8397563" /><circle
                       style="fill:#ffffff;fill-opacity:1;stroke-width:0.687627;stroke-linejoin:bevel;stroke-dashoffset:3.77953"
                       id="path50"
                       cx="-61.113682"
                       cy="138.7204"
                       r="2.122287" /><path
                       id="rect51"
                       style="fill:#ffffff;fill-opacity:1;stroke-width:0.805693;stroke-linejoin:bevel;stroke-dashoffset:3.77953"
                       d="m -61.298776,143.59784 c -0.04179,0 -0.07545,0.0336 -0.07545,0.0754 v 0.91571 h -0.915707 c -0.0418,0 -0.07545,0.0336 -0.07545,0.0754 v 0.37517 c 0,0.0418 0.03365,0.0755 0.07545,0.0755 h 0.915707 v 0.9157 c 0,0.0418 0.03365,0.0754 0.07545,0.0754 h 0.375171 c 0.0418,0 0.07545,-0.0336 0.07545,-0.0754 v -0.9157 h 0.915706 c 0.0418,0 0.07545,-0.0337 0.07545,-0.0755 v -0.37517 c 0,-0.0418 -0.03365,-0.0754 -0.07545,-0.0754 h -0.915706 v -0.91571 c 0,-0.0418 -0.03365,-0.0754 -0.07545,-0.0754 z" /></g></g></g></g><g
               id="g59"><g
                 id="g58"><g
                   id="g57"><g
                     id="g56"><circle
                       style="fill:none;fill-opacity:1;stroke:#ffffff;stroke-width:0.565774;stroke-linejoin:bevel;stroke-dasharray:none;stroke-dashoffset:3.77953;stroke-opacity:1"
                       id="path55"
                       cx="-69.16172"
                       cy="55.782906"
                       r="2.1021681" /><rect
                       style="fill:#ffffff;fill-opacity:1;stroke:none;stroke-width:0.666263;stroke-linejoin:bevel;stroke-dasharray:none;stroke-dashoffset:3.77953;stroke-opacity:1"
                       id="rect55"
                       width="0.45681965"
                       height="1.9719726"
                       x="-88.584686"
                       y="-7.271729"
                       ry="0.0754425"
                       rx="0.0754425"
                       transform="rotate(-45)" /></g></g></g></g><rect
               style="fill:#ffffff;fill-opacity:1;stroke:none;stroke-width:0.570151;stroke-linejoin:bevel;stroke-dasharray:none;stroke-dashoffset:3.77953;stroke-opacity:1"
               id="rect59"
               width="6.3317819"
               height="0.56126595"
               x="-90.246887"
               y="60.862286"
               rx="0.075442493"
               ry="0.075442493" /><g
               id="g108"><g
                 id="g107"><g
                   id="g96"><g
                     id="g84"><g
                       id="g83"><g
                         id="g71"><path
                           id="rect60"
                           style="fill:#ffffff;fill-opacity:1;stroke:none;stroke-width:0.607063;stroke-linejoin:bevel;stroke-dasharray:none;stroke-dashoffset:3.77953;stroke-opacity:1"
                           d="m -152.09976,53.991536 c -0.29443,0 -0.53123,0.233796 -0.53123,0.523999 v 0.371554 h 0.56069 v -0.06563 c 0,-0.210701 0.15113,-0.380339 0.33899,-0.380339 h 3.8468 c 0.18786,0 0.33899,0.169638 0.33899,0.380339 v 0.06563 h 0.50178 v -0.371554 c 0,-0.290203 -0.23732,-0.523999 -0.53175,-0.523999 z m -0.53123,4.216281 v 0.365869 c 0,0.290204 0.2368,0.523482 0.53123,0.523482 h 4.52427 c 0.29443,0 0.53175,-0.233278 0.53175,-0.523482 v -0.365869 h -0.50178 v 0.0021 c 0,0.210701 -0.15113,0.379821 -0.33899,0.379821 h -3.8468 c -0.18786,0 -0.33899,-0.16912 -0.33899,-0.379821 v -0.0021 z" /><rect
                           style="fill:#ffffff;fill-opacity:1;stroke:none;stroke-width:0.746105;stroke-linejoin:bevel;stroke-dasharray:none;stroke-dashoffset:3.77953;stroke-opacity:1"
                           id="rect66"
                           width="0.42679605"
                           height="1.609111"
                           x="-144.43677"
                           y="-69.147491"
                           rx="0.041908678"
                           ry="0.041908674"
                           transform="rotate(-45)" /><rect
                           style="fill:#ffffff;fill-opacity:1;stroke:none;stroke-width:0.746105;stroke-linejoin:bevel;stroke-dasharray:none;stroke-dashoffset:3.77953;stroke-opacity:1"
                           id="rect67"
                           width="0.42679605"
                           height="1.609111"
                           x="67.451538"
                           y="142.78215"
                           rx="0.041908678"
                           ry="0.041908674"
                           transform="matrix(-0.70710678,-0.70710678,-0.70710678,0.70710678,0,0)" /></g></g></g><text
                     xml:space="preserve"
                     style="font-style:normal;font-variant:normal;font-weight:normal;font-stretch:normal;font-size:2.92694px;font-family:arial;-inkscape-font-specification:arial;text-align:start;writing-mode:lr-tb;direction:ltr;text-anchor:start;fill:#ffffff;fill-opacity:1;stroke:none;stroke-width:0.291944;stroke-linejoin:bevel;stroke-dasharray:none;stroke-dashoffset:3.77953;stroke-opacity:1"
                     x="-148.4381"
                     y="59.363899"
                     id="text85"
                     transform="scale(1.0315783,0.96938836)"><tspan
                       sodipodi:role="line"
                       id="tspan85"
                       style="stroke-width:0.291945"
                       x="-148.4381"
                       y="59.363899">LIVE</tspan></text></g></g></g><text
               xml:space="preserve"
               style="font-style:normal;font-variant:normal;font-weight:normal;font-stretch:normal;font-size:4.45397px;font-family:arial;-inkscape-font-specification:arial;text-align:start;writing-mode:lr-tb;direction:ltr;text-anchor:start;fill:#ffffff;fill-opacity:1;stroke:none;stroke-width:0.444257;stroke-linejoin:bevel;stroke-dasharray:none;stroke-dashoffset:3.77953;stroke-opacity:1"
               x="-148.666"
               y="213.95714"
               id="text108"
               transform="scale(1.0359277,0.96531834)"><tspan
                 sodipodi:role="line"
                 id="tspan108"
                 style="stroke-width:0.444257"
                 x="-148.666"
                 y="213.95714">Deb</tspan></text><text
               xml:space="preserve"
               style="font-style:normal;font-variant:normal;font-weight:normal;font-stretch:normal;font-size:3.80041px;font-family:arial;-inkscape-font-specification:arial;text-align:start;writing-mode:lr-tb;direction:ltr;text-anchor:start;fill:#ffffff;fill-opacity:1;stroke:none;stroke-width:0.379069;stroke-linejoin:bevel;stroke-dasharray:none;stroke-dashoffset:3.77953;stroke-opacity:1"
               x="-151.40796"
               y="217.43047"
               id="text109"
               transform="scale(1.017539,0.98276332)"><tspan
                 sodipodi:role="line"
                 id="tspan109"
                 style="stroke-width:0.37907"
                 x="-151.40796"
                 y="217.43047">Trend viral #trend</tspan></text><text
               xml:space="preserve"
               style="font-style:normal;font-variant:normal;font-weight:normal;font-stretch:normal;font-size:3.34074px;font-family:arial;-inkscape-font-specification:arial;text-align:start;writing-mode:lr-tb;direction:ltr;text-anchor:start;fill:#ffffff;fill-opacity:1;stroke:none;stroke-width:0.333218;stroke-linejoin:bevel;stroke-dasharray:none;stroke-dashoffset:3.77953;stroke-opacity:1"
               x="-142.5995"
               y="56.10331"
               id="text110"
               transform="scale(0.97964059,1.0207825)"><tspan
                 sodipodi:role="line"
                 id="tspan110"
                 style="stroke-width:0.333218"
                 x="-142.5995"
                 y="56.10331">Explorar</tspan></text><text
               xml:space="preserve"
               style="font-style:normal;font-variant:normal;font-weight:normal;font-stretch:normal;font-size:3.43075px;font-family:arial;-inkscape-font-specification:arial;text-align:start;writing-mode:lr-tb;direction:ltr;text-anchor:start;fill:#ffffff;fill-opacity:1;stroke:none;stroke-width:0.342197;stroke-linejoin:bevel;stroke-dasharray:none;stroke-dashoffset:3.77953;stroke-opacity:1"
               x="-129.44226"
               y="55.164745"
               id="text111"
               transform="scale(0.96378151,1.0375796)"><tspan
                 sodipodi:role="line"
                 style="stroke-width:0.342197"
                 x="-129.44226"
                 y="55.164745"
                 id="tspan112">Seguindo</tspan></text><text
               xml:space="preserve"
               style="font-style:normal;font-variant:normal;font-weight:normal;font-stretch:normal;font-size:3.402px;font-family:arial;-inkscape-font-specification:arial;text-align:start;writing-mode:lr-tb;direction:ltr;text-anchor:start;fill:#ffffff;fill-opacity:1;stroke:none;stroke-width:0.33933;stroke-linejoin:bevel;stroke-dasharray:none;stroke-dashoffset:3.77953;stroke-opacity:1"
               x="-112.98631"
               y="54.702541"
               id="text115"
               transform="scale(0.95570634,1.0463465)"><tspan
                 sodipodi:role="line"
                 style="stroke-width:0.33933"
                 x="-112.98631"
                 y="54.702541"
                 id="tspan115">Evento</tspan></text><text
               xml:space="preserve"
               style="font-style:normal;font-variant:normal;font-weight:normal;font-stretch:normal;font-size:3.64853px;font-family:arial;-inkscape-font-specification:arial;text-align:start;writing-mode:lr-tb;direction:ltr;text-anchor:start;fill:#ffffff;fill-opacity:1;stroke:none;stroke-width:0.36392;stroke-linejoin:bevel;stroke-dasharray:none;stroke-dashoffset:3.77953;stroke-opacity:1"
               x="-101.8036"
               y="53.327991"
               id="text116"
               transform="scale(0.93041655,1.0747874)"><tspan
                 sodipodi:role="line"
                 style="stroke-width:0.36392"
                 x="-101.8036"
                 y="53.327991"
                 id="tspan116">Para você</tspan></text><path
               id="rect117"
               style="fill:#000000;fill-opacity:1;stroke:none;stroke-width:0.602301;stroke-linejoin:bevel;stroke-dasharray:none;stroke-dashoffset:3.77953;stroke-opacity:1"
               d="M -158.35794,40.223274 V 254.64759 h 97.428501 V 40.223274 Z m 1.16944,1.187703 h 95.471182 V 253.45988 H -157.1885 Z" /></g></g></g></g></g></svg>
